<svg width="521" height="261" viewBox="0 0 521 261" fill="none" xmlns="http://www.w3.org/2000/svg">
<mask id="path-1-inside-1_60_160" fill="white">
<path d="M521 260.5C521 191.411 493.555 125.152 444.701 76.2987C395.848 27.4455 329.589 5.21607e-06 260.5 0C191.411 -5.21607e-06 125.152 27.4454 76.2987 76.2987C27.4455 125.152 1.04321e-05 191.411 0 260.5L260.5 260.5H521Z"/>
</mask>
<path d="M521 260.5C521 191.411 493.555 125.152 444.701 76.2987C395.848 27.4455 329.589 5.21607e-06 260.5 0C191.411 -5.21607e-06 125.152 27.4454 76.2987 76.2987C27.4455 125.152 1.04321e-05 191.411 0 260.5L260.5 260.5H521Z" stroke="#838383" stroke-width="6" mask="url(#path-1-inside-1_60_160)"/>
</svg>
