<svg width="29" height="29" viewBox="0 0 29 29" fill="none" xmlns="http://www.w3.org/2000/svg">
<g clip-path="url(#clip0_195_18)">
<path d="M14.4323 3.94723e-05C10.5984 0.0179312 6.92766 1.5535 4.223 4.27084C1.51834 6.98818 -4.17468e-05 10.6661 8.60859e-10 14.5C8.60866e-10 18.3457 1.52767 22.0338 4.24695 24.7531C6.96623 27.4724 10.6544 29 14.5 29C18.3456 29 22.0338 27.4724 24.753 24.7531C27.4723 22.0338 29 18.3457 29 14.5C29 10.6544 27.4723 6.96627 24.753 4.24699C22.0338 1.52771 18.3456 3.94723e-05 14.5 3.94723e-05C14.4774 -1.31574e-05 14.4549 -1.31574e-05 14.4323 3.94723e-05ZM20.4281 8.72904C20.5489 8.72662 20.816 8.75683 20.99 8.89821C21.1056 8.99861 21.1793 9.13876 21.1966 9.29092C21.2159 9.40329 21.2401 9.66066 21.2208 9.86125C21.0033 12.1547 20.0583 17.7178 19.5774 20.2855C19.3744 21.373 18.9745 21.7367 18.5866 21.7718C17.7456 21.8503 17.1064 21.216 16.2908 20.6819C15.0148 19.8445 14.2934 19.3237 13.0548 18.5069C11.623 17.5644 12.551 17.0448 13.3666 16.199C13.5805 15.9766 17.29 12.6017 17.3625 12.296C17.371 12.2574 17.3795 12.1148 17.2949 12.0399C17.2103 11.965 17.0846 11.9903 16.994 12.0109C16.8659 12.0399 14.8275 13.3884 10.8786 16.0527C10.2986 16.4515 9.77542 16.6448 9.30538 16.6327C8.78821 16.6231 7.79254 16.3415 7.05183 16.1011C6.14317 15.805 5.42179 15.6492 5.48463 15.1477C5.51725 14.8867 5.87733 14.6197 6.56367 14.3466C10.7904 12.5051 13.6083 11.2907 15.0196 10.7047C19.0458 9.02991 19.8831 8.73871 20.4281 8.72904Z" fill="black"/>
</g>
<defs>
<clipPath id="clip0_195_18">
<rect width="29" height="29" fill="white"/>
</clipPath>
</defs>
</svg>
